<?xml version="1.0" encoding="iso-8859-1"?>
<!-- Generator: Adobe Illustrator 19.0.0, SVG Export Plug-In . SVG Version: 6.00 Build 0)  -->
<svg version="1.1" id="Capa_1" xmlns="http://www.w3.org/2000/svg" xmlns:xlink="http://www.w3.org/1999/xlink" x="0px" y="0px"
	 viewBox="0 0 512 512" style="enable-background:new 0 0 512 512;" xml:space="preserve">
<g>
	<path style="fill:#FFC850;" d="M184.241,27.236c-2.478,15.714-6.7,58.697,15.751,83.715l38.393-15.903
		c-1.815-33.566-35.193-60.974-48.057-70.333C187.872,22.929,184.714,24.237,184.241,27.236z"/>
	<path style="fill:#FFC850;" d="M327.759,356.506c2.478-15.714,6.7-58.697-15.751-83.715l-38.393,15.903
		c1.815,33.566,35.193,60.974,48.057,70.333C324.128,360.813,327.286,359.505,327.759,356.506z"/>
	<path style="fill:#FFC850;" d="M420.634,120.112c-15.714-2.478-58.697-6.7-83.715,15.751l15.903,38.393
		c33.566-1.815,60.974-35.193,70.333-48.057C424.941,123.743,423.634,120.585,420.634,120.112z"/>
	<path style="fill:#FFC850;" d="M91.365,263.63c15.714,2.478,58.697,6.7,83.715-15.751l-15.903-38.393
		c-33.566,1.815-60.974,35.193-70.333,48.057C87.057,259.999,88.366,263.157,91.365,263.63z"/>
	<path style="fill:#FFC850;" d="M321.673,24.715c-12.864,9.359-46.243,36.768-48.057,70.333l38.393,15.903
		c22.451-25.018,18.23-68.001,15.752-83.715C327.286,24.237,324.128,22.929,321.673,24.715z"/>
	<path style="fill:#FFC850;" d="M190.327,359.027c12.864-9.359,46.243-36.768,48.057-70.333l-38.393-15.903
		c-22.451,25.018-18.23,68.001-15.752,83.715C184.713,359.505,187.872,360.813,190.327,359.027z"/>
	<path style="fill:#FFC850;" d="M423.156,257.544c-9.359-12.864-36.768-46.243-70.333-48.057l-15.903,38.393
		c25.018,22.451,68.001,18.23,83.715,15.752C423.634,263.158,424.941,259.999,423.156,257.544z"/>
	<path style="fill:#FFC850;" d="M88.844,126.198c9.359,12.864,36.768,46.243,70.333,48.057l15.903-38.393
		c-25.018-22.451-68.001-18.23-83.715-15.752C88.366,120.584,87.058,123.743,88.844,126.198z"/>
</g>
<path style="fill:#AFD755;" d="M60.977,345.659c10.895,23.426,49.77,87.137,156.341,106.144c4.031,0.719,7.04-3.676,4.969-7.209
	c-13.108-22.364-56.168-81.449-155.81-105.609C62.608,338.047,59.298,342.048,60.977,345.659z"/>
<path style="fill:#BEE86E;" d="M451.023,345.659c-10.895,23.426-49.77,87.137-156.341,106.144c-4.031,0.719-7.04-3.676-4.969-7.209
	c13.108-22.364,56.168-81.449,155.81-105.609C449.392,338.047,452.702,342.048,451.023,345.659z"/>
<g>
	<path style="fill:#FFDC64;" d="M252.706,12.307c-8.303,13.569-28.652,51.665-17.484,83.37h41.556
		c11.168-31.705-9.181-69.801-17.483-83.37C257.709,9.717,254.291,9.717,252.706,12.307z"/>
	<path style="fill:#FFDC64;" d="M259.294,371.435c8.303-13.569,28.652-51.665,17.484-83.37h-41.556
		c-11.168,31.705,9.181,69.801,17.483,83.37C254.29,374.025,257.709,374.025,259.294,371.435z"/>
	<path style="fill:#FFDC64;" d="M435.564,188.577c-13.569-8.303-51.665-28.652-83.37-17.484v41.556
		c31.705,11.168,69.801-9.181,83.37-17.483C438.154,193.58,438.154,190.162,435.564,188.577z"/>
	<path style="fill:#FFDC64;" d="M76.436,195.165c13.569,8.303,51.665,28.652,83.37,17.484v-41.556
		c-31.705-11.168-69.801,9.181-83.37,17.483C73.846,190.162,73.846,193.58,76.436,195.165z"/>
	<path style="fill:#FFDC64;" d="M380.641,62.571c-15.466,3.724-56.793,16.272-71.315,46.589l29.384,29.384
		c30.316-14.522,42.865-55.848,46.589-71.314C386.01,64.277,383.594,61.86,380.641,62.571z"/>
	<path style="fill:#FFDC64;" d="M131.358,321.171c15.466-3.724,56.793-16.272,71.315-46.589l-29.384-29.384
		c-30.316,14.522-42.865,55.848-46.589,71.314C125.989,319.465,128.406,321.882,131.358,321.171z"/>
	<path style="fill:#FFDC64;" d="M385.299,316.512c-3.724-15.466-16.272-56.793-46.589-71.315l-29.384,29.384
		c14.522,30.316,55.848,42.865,71.314,46.589C383.592,321.882,386.01,319.465,385.299,316.512z"/>
	<path style="fill:#FFDC64;" d="M126.7,67.23c3.724,15.466,16.272,56.793,46.589,71.315l29.384-29.384
		c-14.522-30.316-55.848-42.865-71.314-46.589C128.406,61.86,125.989,64.277,126.7,67.23z"/>
</g>
<circle style="fill:#965A50;" cx="256" cy="191.87" r="112.23"/>
<circle style="fill:#643C3E;" cx="256" cy="191.87" r="80.16"/>
<path d="M204.621,140.492c24.342-24.341,62.801-28.234,91.449-9.254c3.453,2.288,8.107,1.343,10.395-2.11s1.343-8.107-2.11-10.395
	c-34.569-22.903-80.974-18.213-110.339,11.152s-34.055,75.77-11.152,110.339c1.443,2.179,3.828,3.359,6.259,3.359
	c1.422,0,2.861-0.404,4.135-1.249c3.453-2.288,4.398-6.941,2.11-10.395C176.388,203.293,180.279,164.833,204.621,140.492z"/>
<path d="M329.138,143.517c-2.288-3.453-6.942-4.397-10.395-2.11c-3.453,2.288-4.398,6.941-2.11,10.395
	c18.979,28.648,15.087,67.108-9.254,91.449s-62.802,28.233-91.449,9.254c-3.452-2.288-8.107-1.343-10.395,2.11
	c-2.288,3.453-1.343,8.107,2.11,10.395c14.677,9.724,31.485,14.474,48.219,14.473c22.68,0,45.223-8.728,62.12-25.625
	C347.351,224.492,352.04,178.087,329.138,143.517z"/>
<path d="M460.124,331.865c-1.795-1.967-4.5-2.836-7.107-2.279c-69.658,14.882-113.349,46.687-137.735,70.747
	c-23.498,23.183-34.049,43.609-36.516,48.811c-2.274,2.464-8.728,9.538-15.266,17.456v-87.678
	c4.589-5.785,16.398-21.944,21.565-40.934c14.63,18.916,36.732,30.222,38.124,30.921c1.057,0.531,2.21,0.798,3.367,0.798
	c0.974,0,1.95-0.189,2.87-0.571c2.013-0.834,3.564-2.502,4.25-4.571c0.49-1.479,8.124-25.102,5.093-48.823
	c20.755,11.877,45.502,13.864,47.056,13.978c0.183,0.014,0.365,0.02,0.546,0.02c1.981,0,3.892-0.785,5.303-2.197
	c1.541-1.541,2.335-3.676,2.177-5.849c-0.113-1.554-2.101-26.301-13.978-47.056c3.906,0.499,7.81,0.714,11.613,0.714
	c19.286,0,35.975-5.397,37.21-5.806c2.068-0.685,3.737-2.236,4.571-4.25s0.751-4.29-0.228-6.237
	c-0.7-1.393-12.007-23.497-30.935-38.126c23.079-6.275,41.992-22.369,43.172-23.387c1.649-1.425,2.597-3.496,2.597-5.675
	s-0.948-4.25-2.597-5.675c-1.179-1.019-20.083-17.113-43.158-23.39c18.915-14.63,30.222-36.731,30.922-38.124
	c0.979-1.947,1.062-4.224,0.228-6.237s-2.502-3.564-4.571-4.25c-1.479-0.49-25.102-8.124-48.823-5.094
	c11.877-20.755,13.865-45.502,13.978-47.055c0.159-2.173-0.636-4.308-2.177-5.849c-1.541-1.541-3.675-2.339-5.849-2.177
	c-1.554,0.113-26.301,2.101-47.056,13.978c3.031-23.721-4.603-47.344-5.093-48.823c-0.685-2.068-2.236-3.737-4.25-4.571
	c-2.012-0.834-4.29-0.751-6.237,0.228c-1.392,0.699-23.495,12.006-38.124,30.921c-6.277-23.074-22.371-41.978-23.389-43.157
	C260.25,0.948,258.178,0,256,0s-4.25,0.948-5.675,2.597c-1.019,1.179-17.112,20.083-23.389,43.157
	c-14.63-18.916-36.732-30.222-38.124-30.921c-1.947-0.979-4.224-1.062-6.237-0.228c-2.013,0.834-3.564,2.502-4.25,4.571
	c-0.49,1.479-8.124,25.103-5.093,48.823c-20.755-11.877-45.502-13.865-47.056-13.978c-2.174-0.164-4.308,0.636-5.849,2.177
	c-1.541,1.541-2.335,3.676-2.177,5.849c0.113,1.554,2.101,26.301,13.978,47.056c-23.72-3.031-47.344,4.603-48.823,5.093
	c-2.068,0.685-3.737,2.236-4.571,4.25s-0.751,4.29,0.228,6.237c0.699,1.392,12.005,23.495,30.92,38.124
	c-23.074,6.278-41.977,22.371-43.156,23.389c-1.649,1.425-2.597,3.496-2.597,5.675s0.948,4.25,2.597,5.675
	c1.179,1.019,20.094,17.115,43.177,23.389c-18.919,14.63-30.241,36.732-30.94,38.125c-0.979,1.947-1.062,4.224-0.228,6.237
	s2.502,3.564,4.571,4.25c1.235,0.409,17.922,5.807,37.21,5.806c3.803,0,7.706-0.215,11.613-0.714
	c-11.878,20.755-13.865,45.503-13.979,47.057c-0.159,2.173,0.636,4.308,2.177,5.849c1.412,1.412,3.321,2.197,5.303,2.197
	c0.182,0,0.364-0.006,0.546-0.02c1.554-0.113,26.301-2.1,47.056-13.978c-3.031,23.721,4.603,47.344,5.093,48.823
	c0.685,2.068,2.236,3.737,4.25,4.571c0.92,0.381,1.896,0.571,2.87,0.571c1.156,0,2.31-0.267,3.367-0.798
	c1.392-0.699,23.495-12.005,38.124-30.921c5.166,18.99,16.975,35.15,21.565,40.934V466.6c-6.538-7.917-12.992-14.992-15.266-17.456
	c-2.467-5.202-13.018-25.628-36.516-48.811c-24.387-24.06-68.078-55.865-137.735-70.747c-2.604-0.556-5.311,0.312-7.107,2.279
	c-1.796,1.968-2.413,4.741-1.621,7.285c0.326,1.046,8.27,25.929,34.072,53.409c23.267,24.78,66.187,56.489,138.844,67.807
	c4.892,5.353,18.919,20.992,25.329,31.199V504.5c0,4.142,3.358,7.5,7.5,7.5c4.142,0,7.5-3.358,7.5-7.5v-12.936
	c6.406-10.198,20.436-25.844,25.329-31.199c72.656-11.317,115.577-43.027,138.843-67.807c25.802-27.48,33.747-52.363,34.072-53.409
	C462.536,336.606,461.92,333.833,460.124,331.865z M95.841,382.904c-12.676-13.37-20.711-26.151-25.458-35.193
	c57.32,15.051,94.049,41.997,115.233,62.744c12.848,12.582,21.584,24.359,27.04,32.831
	C152.379,431.222,116.079,404.25,95.841,382.904z M151.274,191.871c0-57.746,46.979-104.726,104.726-104.726
	s104.726,46.98,104.726,104.726S313.746,296.597,256,296.597S151.274,249.617,151.274,191.871z M321.794,350.732
	c-3.963-2.554-8.938-6.075-13.896-10.42c-8.743-7.661-18.978-19.342-20.462-32.912c9.904-2.698,19.303-6.63,28.014-11.635
	C328.014,311.296,324.749,337.083,321.794,350.732z M360.754,309.152c-11.025-3.737-24.976-10.628-31.528-22.628
	c8.013-6.213,15.218-13.418,21.43-21.431c17.571,9.528,24.428,34.62,26.924,48.368C372.941,312.618,366.997,311.269,360.754,309.152
	z M414.855,257.679c-4.608,0.997-10.615,2.024-17.194,2.458c-11.61,0.765-27.108-0.277-37.753-8.84
	c4.999-8.707,8.928-18.101,11.623-27.998C391.374,225.411,407.296,245.945,414.855,257.679z M413.002,200.729
	c-10.422,5.145-25.131,10.13-38.234,6.311c0.631-4.969,0.957-10.032,0.957-15.169c0-5.14-0.326-10.205-0.958-15.176
	c19.149-5.64,41.706,7.236,53.179,15.183C424.07,194.563,418.915,197.811,413.002,200.729z M414.859,126.076
	c-2.554,3.963-6.074,8.938-10.419,13.896c-7.66,8.743-19.352,18.94-32.914,20.453c-2.698-9.9-6.63-19.296-11.632-28.004
	C375.424,119.856,401.213,123.123,414.859,126.076z M373.181,87.413c-3.736,10.913-10.607,24.722-22.528,31.232
	c-6.213-8.013-13.418-15.218-21.431-21.43c9.527-17.567,34.612-24.425,48.361-26.922C376.724,75.021,375.345,81.091,373.181,87.413z
	 M321.797,33.022c2.954,13.655,6.213,39.429-6.347,54.953c-8.713-5.005-18.115-8.939-28.021-11.636
	C289.543,56.493,310.061,40.584,321.797,33.022z M256,19.935c7.95,11.479,20.815,34.026,15.176,53.168
	c-4.971-0.632-10.036-0.958-15.176-0.958s-10.205,0.326-15.176,0.958C235.184,53.959,248.052,31.41,256,19.935z M190.203,33.022
	c11.739,7.564,32.255,23.472,34.368,43.317c-9.906,2.698-19.308,6.631-28.021,11.636C183.989,72.45,187.249,46.674,190.203,33.022z
	 M151.542,74.69c10.913,3.736,24.722,10.607,31.232,22.527c-8.013,6.213-15.218,13.418-21.43,21.431
	c-17.567-9.527-24.425-34.612-26.922-48.361C139.15,71.147,145.22,72.526,151.542,74.69z M97.145,126.063
	c4.608-0.997,10.615-2.024,17.194-2.458c11.607-0.768,27.107,0.276,37.753,8.84c-4.998,8.705-8.927,18.098-11.622,27.993
	C120.595,158.308,104.704,137.798,97.145,126.063z M137.232,176.695c-0.632,4.971-0.958,10.036-0.958,15.176
	s0.326,10.205,0.958,15.176c-19.145,5.641-41.693-7.227-53.169-15.176C95.542,183.92,118.087,171.056,137.232,176.695z
	 M97.139,257.666c2.554-3.963,6.075-8.938,10.42-13.896c7.66-8.744,19.341-18.962,32.913-20.458c2.698,9.902,6.63,19.3,11.634,28.01
	C136.576,263.886,110.788,260.62,97.139,257.666z M138.719,296.625c3.737-11.025,10.628-24.975,22.628-31.527
	c6.213,8.013,13.418,15.217,21.431,21.43c-9.529,17.571-34.62,24.428-48.368,26.923
	C135.253,308.812,136.602,302.869,138.719,296.625z M190.203,350.72c-2.954-13.656-6.213-39.429,6.347-54.954
	c8.713,5.005,18.115,8.939,28.021,11.636C222.457,327.249,201.939,343.158,190.203,350.72z M240.83,310.64
	c4.969,0.631,10.032,0.957,15.17,0.957c5.14,0,10.205-0.326,15.176-0.958c5.641,19.149-7.235,41.706-15.183,53.179
	c-2.685-3.876-5.933-9.033-8.852-14.944C241.996,338.451,237.011,323.743,240.83,310.64z M416.159,382.904
	c-20.236,21.345-56.526,48.313-116.796,60.377c15.271-23.613,56.297-73.041,142.256-95.574
	C436.872,356.749,428.838,369.531,416.159,382.904z"/>
<g>
</g>
<g>
</g>
<g>
</g>
<g>
</g>
<g>
</g>
<g>
</g>
<g>
</g>
<g>
</g>
<g>
</g>
<g>
</g>
<g>
</g>
<g>
</g>
<g>
</g>
<g>
</g>
<g>
</g>
</svg>
